HIERARCHY
ROOT Hips
{
    OFFSET   0.000000   0.000000   0.000000
    CHANNELS 6 Xposition Yposition Zposition Zrotation Xrotation Yrotation
    JOINT Chest
    {
        OFFSET   0.000000   8.007240   0.000000
        CHANNELS 3 Zrotation Xrotation Yrotation
        JOINT Chest2
        {
            OFFSET   0.000000  22.077100   0.000000
            CHANNELS 3 Zrotation Xrotation Yrotation
            JOINT Neck
            {
                OFFSET   0.000000  23.254800   0.000000
                CHANNELS 3 Zrotation Xrotation Yrotation
                JOINT Head
                {
                    OFFSET   0.000000  14.370000   1.956600
                    CHANNELS 3 Zrotation Xrotation Yrotation
                    End Site
                    {
                        OFFSET   0.000000  19.566000   0.000000
                    }
                }
            }
            JOINT LeftCollar
            {
                OFFSET   3.911900  19.017000  -0.467064
                CHANNELS 3 Zrotation Xrotation Yrotation
                JOINT LeftShoulder
                {
                    OFFSET  10.383700   0.000000   0.000000
                    CHANNELS 3 Zrotation Xrotation Yrotation
                    JOINT LeftElbow
                    {
                        OFFSET  26.662100   0.001476   0.000517
                        CHANNELS 3 Zrotation Xrotation Yrotation
                        JOINT LeftWrist
                        {
                            OFFSET  28.869000  -0.000025  -0.000106
                            CHANNELS 3 Zrotation Xrotation Yrotation
                            JOINT LeftFinger0
                            {
                                OFFSET   2.044660  -2.323460   3.252850
                                CHANNELS 3 Zrotation Xrotation Yrotation
                                JOINT LeftFinger01
                                {
                                    OFFSET   3.088130   0.000000   0.000000
                                    CHANNELS 3 Zrotation Xrotation Yrotation
                                    JOINT LeftFinger02
                                    {
                                        OFFSET   2.639460   0.000000   0.000000
                                        CHANNELS 3 Zrotation Xrotation Yrotation
                                        End Site
                                        {
                                            OFFSET   2.582190   0.000000   0.000000
                                        }
                                    }
                                }
                            }
                            JOINT LeftFinger1
                            {
                                OFFSET   8.364480   0.000000   3.252850
                                CHANNELS 3 Zrotation Xrotation Yrotation
                                JOINT LeftFinger11
                                {
                                    OFFSET   4.646930   0.000000   0.000000
                                    CHANNELS 3 Zrotation Xrotation Yrotation
                                    JOINT LeftFinger12
                                    {
                                        OFFSET   2.323460   0.000000   0.000000
                                        CHANNELS 3 Zrotation Xrotation Yrotation
                                        End Site
                                        {
                                            OFFSET   2.273050   0.000000   0.000000
                                        }
                                    }
                                }
                            }
                            JOINT LeftFinger2
                            {
                                OFFSET   8.364490   0.000015   1.078090
                                CHANNELS 3 Zrotation Xrotation Yrotation
                                JOINT LeftFinger21
                                {
                                    OFFSET   5.111620   0.000000   0.000000
                                    CHANNELS 3 Zrotation Xrotation Yrotation
                                    JOINT LeftFinger22
                                    {
                                        OFFSET   2.788160   0.000016   0.000000
                                        CHANNELS 3 Zrotation Xrotation Yrotation
                                        End Site
                                        {
                                            OFFSET   2.727660   0.000000   0.000000
                                        }
                                    }
                                }
                            }
                            JOINT LeftFinger3
                            {
                                OFFSET   7.899780   0.000017  -1.078090
                                CHANNELS 3 Zrotation Xrotation Yrotation
                                JOINT LeftFinger31
                                {
                                    OFFSET   4.646930   0.000000   0.000000
                                    CHANNELS 3 Zrotation Xrotation Yrotation
                                    JOINT LeftFinger32
                                    {
                                        OFFSET   2.323470   0.000000   0.000000
                                        CHANNELS 3 Zrotation Xrotation Yrotation
                                        End Site
                                        {
                                            OFFSET   2.273050   0.000000   0.000000
                                        }
                                    }
                                }
                            }
                            JOINT LeftFinger4
                            {
                                OFFSET   7.435090   0.000000  -3.252850
                                CHANNELS 3 Zrotation Xrotation Yrotation
                                JOINT LeftFinger41
                                {
                                    OFFSET   3.717550   0.000000   0.000000
                                    CHANNELS 3 Zrotation Xrotation Yrotation
                                    JOINT LeftFinger42
                                    {
                                        OFFSET   1.858770   0.000000   0.000000
                                        CHANNELS 3 Zrotation Xrotation Yrotation
                                        End Site
                                        {
                                            OFFSET   1.818440   0.000000   0.000000
                                        }
                                    }
                                }
                            }
                        }
                    }
                }
            }
            JOINT RightCollar
            {
                OFFSET  -3.911900  19.017000  -0.467063
                CHANNELS 3 Zrotation Xrotation Yrotation
                JOINT RightShoulder
                {
                    OFFSET -10.383700   0.000019   0.000000
                    CHANNELS 3 Zrotation Xrotation Yrotation
                    JOINT RightElbow
                    {
                        OFFSET -26.662100   0.001175   0.000102
                        CHANNELS 3 Zrotation Xrotation Yrotation
                        JOINT RightWrist
                        {
                            OFFSET -28.869000   0.000016  -0.000079
                            CHANNELS 3 Zrotation Xrotation Yrotation
                            JOINT RightFinger0
                            {
                                OFFSET  -2.044660  -2.323490   3.252850
                                CHANNELS 3 Zrotation Xrotation Yrotation
                                JOINT RightFinger01
                                {
                                    OFFSET  -3.088140   0.000000   0.000000
                                    CHANNELS 3 Zrotation Xrotation Yrotation
                                    JOINT RightFinger02
                                    {
                                        OFFSET  -2.639460   0.000000   0.000000
                                        CHANNELS 3 Zrotation Xrotation Yrotation
                                        End Site
                                        {
                                            OFFSET  -2.582190   0.000000   0.000000
                                        }
                                    }
                                }
                            }
                            JOINT RightFinger1
                            {
                                OFFSET  -8.364480   0.000000   3.252850
                                CHANNELS 3 Zrotation Xrotation Yrotation
                                JOINT RightFinger11
                                {
                                    OFFSET  -4.646930   0.000000   0.000000
                                    CHANNELS 3 Zrotation Xrotation Yrotation
                                    JOINT RightFinger12
                                    {
                                        OFFSET  -2.323470   0.000000   0.000000
                                        CHANNELS 3 Zrotation Xrotation Yrotation
                                        End Site
                                        {
                                            OFFSET  -2.273050   0.000000   0.000000
                                        }
                                    }
                                }
                            }
                            JOINT RightFinger2
                            {
                                OFFSET  -8.364480   0.000000   1.078090
                                CHANNELS 3 Zrotation Xrotation Yrotation
                                JOINT RightFinger21
                                {
                                    OFFSET  -5.111620   0.000000   0.000000
                                    CHANNELS 3 Zrotation Xrotation Yrotation
                                    JOINT RightFinger22
                                    {
                                        OFFSET  -2.788160   0.000000   0.000000
                                        CHANNELS 3 Zrotation Xrotation Yrotation
                                        End Site
                                        {
                                            OFFSET  -2.727660   0.000000   0.000000
                                        }
                                    }
                                }
                            }
                            JOINT RightFinger3
                            {
                                OFFSET  -7.899780   0.000000  -1.078090
                                CHANNELS 3 Zrotation Xrotation Yrotation
                                JOINT RightFinger31
                                {
                                    OFFSET  -4.646930   0.000000   0.000000
                                    CHANNELS 3 Zrotation Xrotation Yrotation
                                    JOINT RightFinger32
                                    {
                                        OFFSET  -2.323470   0.000000   0.000000
                                        CHANNELS 3 Zrotation Xrotation Yrotation
                                        End Site
                                        {
                                            OFFSET  -2.273050   0.000000   0.000000
                                        }
                                    }
                                }
                            }
                            JOINT RightFinger4
                            {
                                OFFSET  -7.435090   0.000000  -3.252850
                                CHANNELS 3 Zrotation Xrotation Yrotation
                                JOINT RightFinger41
                                {
                                    OFFSET  -3.717550   0.000000   0.000000
                                    CHANNELS 3 Zrotation Xrotation Yrotation
                                    JOINT RightFinger42
                                    {
                                        OFFSET  -1.858770   0.000000   0.000000
                                        CHANNELS 3 Zrotation Xrotation Yrotation
                                        End Site
                                        {
                                            OFFSET  -1.818440   0.000000   0.000000
                                        }
                                    }
                                }
                            }
                        }
                    }
                }
            }
        }
    }
    JOINT LeftHip
    {
        OFFSET   9.783040   0.000000   0.000000
        CHANNELS 3 Zrotation Xrotation Yrotation
        JOINT LeftKnee
        {
            OFFSET   0.000032 -41.789100  -0.002222
            CHANNELS 3 Zrotation Xrotation Yrotation
            JOINT LeftAnkle
            {
                OFFSET   0.000087 -41.133200  -0.000135
                CHANNELS 3 Zrotation Xrotation Yrotation
                JOINT LeftToe
                {
                    OFFSET   0.000000  -6.358960  14.674500
                    CHANNELS 3 Zrotation Xrotation Yrotation
                    End Site
                    {
                        OFFSET   0.000000   0.000000   3.913200
                    }
                }
            }
        }
    }
    JOINT RightHip
    {
        OFFSET  -9.783040   0.000000   0.000000
        CHANNELS 3 Zrotation Xrotation Yrotation
        JOINT RightKnee
        {
            OFFSET   0.000047 -41.789100  -0.000896
            CHANNELS 3 Zrotation Xrotation Yrotation
            JOINT RightAnkle
            {
                OFFSET  -0.000117 -41.133300  -0.000248
                CHANNELS 3 Zrotation Xrotation Yrotation
                JOINT RightToe
                {
                    OFFSET   0.000000  -6.358970  14.674500
                    CHANNELS 3 Zrotation Xrotation Yrotation
                    End Site
                    {
                        OFFSET   0.000000   0.000000   3.913200
                    }
                }
            }
        }
    }
}
MOTION
Frames: 6
Frame Time:   0.016667
  0.955249  89.521900  -1.039760  -2.471940  -1.375310  -0.878865   1.815000   2.835130  -0.658470   3.669260   5.647770  -1.409220  -0.098428  -0.032559   0.000769  -0.162172  -0.062073   7.463530  -8.415450   1.275300  -2.134960 -65.261000  17.276300  -6.281510  -1.718750  -6.331390  -9.776940   0.907855 -13.061000   4.851130  37.579300  26.166700 -67.898300 -16.150800   0.002996   0.003178  -3.075380   0.001149   0.000565 -29.259200   6.490910 -11.408000 -24.470400   0.000308  -0.006839 -17.137900   0.008988  -0.004657 -26.662800   1.089090  -2.182290 -26.683300   0.006016  -0.005462 -17.771100  -0.000243  -0.001978 -24.978500  -0.990065   2.119210 -24.996800  -0.002603  -0.005227 -16.647900   0.000356  -0.002224 -27.772000  -1.099000   2.085810 -41.688000   0.000668  -0.008162 -27.764200   0.001518  -0.004100   6.769160  -3.501520  10.109900  67.646100   8.707740   1.385190   0.628212 -10.275600   5.718010  -8.694270 -10.696100   2.014990 -41.501400  35.283400  74.703800  25.709200   0.000181  -0.000195   7.854590  -0.000674   0.000740  29.975600   6.489320  11.082800  25.048000  -0.013228   0.002270  17.526300  -0.001743   0.001785  24.348300   0.583744   1.289720  24.354800   0.001854  -0.002659  16.231600   0.005837  -0.004943  27.380200  -0.115681  -0.223398  28.607800   0.000900  -0.001351  19.052800   0.000159  -0.001030  32.342800  -0.134578  -0.212541  48.514600  -0.001955  -0.003621  32.310700   0.002226   0.007013   2.213620   5.295450   1.440500   0.917489   0.191983   9.212060  -1.215590  -3.331800   4.216080  -0.000000   0.000000  -0.000000   1.241500   0.297167  -2.749820   1.737820   4.359900  -3.996130  -2.707240  -2.764480  -3.301230   0.000000   0.000000  -0.000000
  0.956169  89.521900  -1.033530  -2.471760  -1.387520  -0.868106   1.814850   2.842120  -0.658482   3.669020   5.661740  -1.409380  -0.098425  -0.032253   0.000773  -0.162005  -0.061804   7.464060  -8.423990   1.262500  -2.134610 -65.260200  17.278200  -6.284270  -1.716080  -6.307790  -9.788980   0.907242 -13.075700   4.842640  37.561100  26.133400 -67.870600 -16.198600   0.002997   0.003193  -3.099330   0.001150   0.000562 -29.267700   6.480470 -11.385700 -24.475400   0.000305  -0.006836 -17.137900   0.008988  -0.004655 -26.671500   1.089090  -2.174060 -26.692100   0.006016  -0.005458 -17.776900  -0.000251  -0.001976 -24.984300  -0.989679   2.135570 -25.002600  -0.002605  -0.005217 -16.651800   0.000356  -0.002220 -27.781800  -1.114030   2.113190 -41.703500   0.000662  -0.008156 -27.774500   0.001516  -0.004095   6.774460  -3.523650  10.131600  67.630200   8.704710   1.369840   0.628128 -10.274000   5.710730  -8.684800 -10.690400   2.014950 -41.503400  35.283500  74.730100  25.684400   0.000191  -0.000188   7.842180  -0.000671   0.000740  29.982400   6.493820  11.089100  25.050800  -0.013228   0.002269  17.531900  -0.001745   0.001784  24.356800   0.584758   1.291460  24.363200   0.001839  -0.002650  16.231600   0.005838  -0.004945  27.380600  -0.115689  -0.223406  28.623500   0.000905  -0.001354  19.063300   0.000158  -0.001035  32.360700  -0.134604  -0.212542  48.541400  -0.001957  -0.003631  32.328500   0.002222   0.007014   2.213080   5.314730   1.440610   0.917080   0.180014   9.204980  -1.214160  -3.330630   4.210340  -0.000000   0.000000   0.000000   1.242150   0.308587  -2.747520   1.738200   4.364970  -4.007220  -2.707000  -2.771650  -3.301500   0.000000   0.000000   0.000000
  0.958207  89.521900  -1.022690  -2.471560  -1.410410  -0.849959   1.814790   2.856000  -0.658547   3.669170   5.689460  -1.410070  -0.098423  -0.031948   0.000777  -0.161836  -0.061535   7.467730  -8.440630   1.238530  -2.134250 -65.256600  17.283400  -6.294930  -1.711340  -6.266510  -9.809220   0.905781 -13.090500   4.830230  37.544600  26.096600 -67.846600 -16.249700   0.002999   0.003209  -3.124860   0.001157   0.000558 -29.279000   6.470030 -11.363500 -24.482800   0.000301  -0.006832 -17.137900   0.008990  -0.004650 -26.683500   1.089100  -2.165830 -26.704100   0.006016  -0.005446 -17.784900  -0.000271  -0.001969 -24.993700  -0.989144   2.151920 -25.011900  -0.002611  -0.005193 -16.658000   0.000356  -0.002211 -27.797100  -1.129060   2.140570 -41.727400   0.000644  -0.008140 -27.790400   0.001511  -0.004084   6.783560  -3.560960  10.169800  67.595900   8.701680   1.354490   0.628675 -10.262000   5.696280  -8.665040 -10.676700   2.014850 -41.512800  35.295200  74.786400  25.657500   0.000211  -0.000181   7.828740  -0.000668   0.000740  29.989200   6.498330  11.095400  25.053700  -0.013232   0.002265  17.537500  -0.001750   0.001781  24.365200   0.585771   1.293200  24.371700   0.001805  -0.002630  16.231600   0.005841  -0.004949  27.381100  -0.115746  -0.223464  28.639200   0.000916  -0.001363  19.073700   0.000157  -0.001045  32.378600  -0.134783  -0.212548  48.568200  -0.001965  -0.003656  32.346400   0.002212   0.007016   2.212190   5.348370   1.440750   0.916676   0.168046   9.195120  -1.212950  -3.329480   4.200860   0.000000   0.000000  -0.000000   1.243550   0.336253  -2.741810   1.739420   4.369990  -4.029320  -2.706190  -2.781930  -3.301780   0.000000   0.000000   0.000000
  0.960956  89.521900  -1.013150  -2.472130  -1.433360  -0.834533   1.816370   2.871400  -0.658803   3.672660   5.720230  -1.411270  -0.099743  -0.033864   0.000765  -0.163960  -0.066846   7.478870  -8.457960   1.214250  -2.134320 -65.247600  17.294300  -6.318880  -1.707740  -6.234630  -9.824770   0.903036 -13.066500   4.826580  37.532400  26.112400 -67.882500 -16.253500   0.003009   0.003206  -3.126710   0.001178   0.000567 -29.281900   6.476160 -11.373200 -24.486200   0.000300  -0.006830 -17.139500   0.008995  -0.004642 -26.685400   1.093330  -2.174270 -26.706300   0.006015  -0.005427 -17.786400  -0.000301  -0.001962 -24.997100  -0.988924   2.141760 -25.015200  -0.002621  -0.005159 -16.660200   0.000356  -0.002198 -27.802700  -1.121850   2.126680 -41.735400   0.000615  -0.008115 -27.795700   0.001503  -0.004066   6.791210  -3.591030  10.206400  67.549300   8.704960   1.364840   0.630421 -10.204900   5.679400  -8.633970 -10.661300   2.009250 -41.530700  35.341400  74.861800  25.656100   0.000232  -0.000197   7.828060  -0.000668   0.000742  29.988000   6.491990  11.086600  25.052100  -0.013242   0.002256  17.536400  -0.001756   0.001772  24.361000   0.573281   1.265280  24.367300   0.001759  -0.002603  16.228700   0.005845  -0.004954  27.378000  -0.120896  -0.233431  28.625000   0.000927  -0.001377  19.064300   0.000157  -0.001057  32.370200  -0.140795  -0.222039  48.555600  -0.001976  -0.003695  32.338000   0.002198   0.007018   2.213110   5.379400   1.437330   0.916614   0.168510   9.191680  -1.213060  -3.335200   4.193000   0.000000   0.000000  -0.000000   1.245140   0.378192  -2.732520   1.741010   4.356080  -4.055710  -2.704640  -2.785950  -3.301730  -0.000000   0.000000  -0.000000
  0.964200  89.521900  -1.002880  -2.473600  -1.460780  -0.819753   1.820020   2.890220  -0.659513   3.680270   5.757800  -1.413420  -0.104221  -0.038033   0.000753  -0.171265  -0.077144   7.498390  -8.480240   1.185950  -2.134900 -65.234600  17.301700  -6.344690  -1.702220  -6.189870  -9.842480   0.898066 -13.026300   4.819170  37.513700  26.142300 -67.932500 -16.254000   0.003024   0.003203  -3.126970   0.001204   0.000577 -29.284400   6.487410 -11.390600 -24.489900   0.000299  -0.006827 -17.142900   0.009000  -0.004630 -26.688000   1.099550  -2.186170 -26.709000   0.006014  -0.005402 -17.788200  -0.000340  -0.001951 -25.006300  -0.988856   2.131600 -25.024600  -0.002634  -0.005115 -16.666400   0.000356  -0.002182 -27.816000  -1.111660   2.105960 -41.754700   0.000576  -0.008084 -27.808600   0.001493  -0.004043   6.798730  -3.622970  10.243000  67.497300   8.728070   1.391810   0.626375 -10.123800   5.659450  -8.615840 -10.631800   1.993400 -41.554700  35.393300  74.934600  25.654700   0.000259  -0.000223   7.827380  -0.000667   0.000749  29.981200   6.485660  11.077800  25.045300  -0.013256   0.002245  17.531700  -0.001765   0.001760  24.350700   0.557700   1.232030  24.356700   0.001705  -0.002571  16.221600   0.005851  -0.004960  27.372600  -0.125998  -0.243348  28.599900   0.000941  -0.001396  19.047500   0.000156  -0.001072  32.351200  -0.146653  -0.231524  48.527300  -0.001992  -0.003744  32.319200   0.002180   0.007021   2.215360   5.410310   1.431170   0.916115   0.171747   9.189840  -1.213040  -3.348170   4.186200   0.000000   0.000000   0.000000   1.247050   0.427133  -2.722590   1.742300   4.336160  -4.084060  -2.702780  -2.789260  -3.301270   0.000000   0.000000   0.000000
  0.967773  89.522000  -0.991590  -2.475860  -1.493680  -0.806818   1.825320   2.912510  -0.660843   3.691330   5.802250  -1.417110  -0.112604  -0.043749   0.000753  -0.185034  -0.088980   7.525760  -8.508940   1.154490  -2.144160 -65.216500  17.300700  -6.364050  -1.691730  -6.113840  -9.862710   0.888110 -12.992200   4.789460  37.504100  26.162900 -67.963700 -16.216700   0.003044   0.003220  -3.108310   0.001227   0.000559 -29.290200   6.501710 -11.411400 -24.497000   0.000294  -0.006821 -17.147800   0.009002  -0.004616 -26.704700   1.103280  -2.191610 -26.725600   0.006011  -0.005374 -17.799300  -0.000387  -0.001937 -25.041300  -0.993445   2.132890 -25.059900  -0.002650  -0.005062 -16.689900   0.000356  -0.002165 -27.856500  -1.106930   2.092550 -41.815000   0.000530  -0.008049 -27.848800   0.001481  -0.004014   6.797060  -3.658420  10.274400  67.448900   8.796940   1.433720   0.614397 -10.056700   5.632070  -8.625120 -10.567600   1.966770 -41.594000  35.421700  74.984000  25.627500   0.000293  -0.000245   7.813810  -0.000661   0.000763  29.956200   6.498250  11.108600  25.026200  -0.013274   0.002231  17.518300  -0.001778   0.001745  24.335100   0.554095   1.225810  24.341100   0.001646  -0.002538  16.211200   0.005860  -0.004971  27.366200  -0.116880  -0.225774  28.570100   0.000960  -0.001421  19.027600   0.000155  -0.001091  32.317600  -0.135962  -0.214838  48.476800  -0.002009  -0.003803  32.285500   0.002155   0.007025   2.217770   5.430590   1.424930   0.915826   0.203203   9.187510  -1.214990  -3.371530   4.181630   0.000000   0.000000   0.000000   1.249190   0.472510  -2.713980   1.743410   4.328160  -4.110510  -2.701010  -2.794770  -3.297530  -0.000000   0.000000   0.000000
